<svg xmlns="http://www.w3.org/2000/svg" width="556.512" height="797" viewBox="0 0 556.512 797">
  <g id="Phone_with_shield" data-name="Phone with shield" transform="translate(-1190.488 -142)">
    <rect id="Rectangle_4" data-name="Rectangle 4" width="386" height="754" rx="38" transform="translate(1327 185)" fill="#d2d2d2"/>
    <rect id="Rectangle_9" data-name="Rectangle 9" width="386" height="754" rx="38" transform="translate(1361 142)" fill="#fca311"/>
    <g id="Rectangle_5" data-name="Rectangle 5" transform="translate(1344 163)" fill="none" stroke="#fff" stroke-width="5">
      <rect width="386" height="754" rx="38" stroke="none"/>
      <rect x="2.5" y="2.5" width="381" height="749" rx="35.5" fill="none"/>
    </g>
    <rect id="Rectangle_18" data-name="Rectangle 18" width="296" height="43" rx="11" transform="translate(1389 519)" fill="#fff"/>
    <rect id="Rectangle_19" data-name="Rectangle 19" width="296" height="43" rx="11" transform="translate(1389 597)" fill="#fff"/>
    <rect id="Rectangle_30" data-name="Rectangle 30" width="144" height="43" rx="11" transform="translate(1465 706)" fill="#fff"/>
    <rect id="Rectangle_20" data-name="Rectangle 20" width="140" height="12" rx="6" transform="translate(1409 535)" fill="#fca311"/>
    <rect id="Rectangle_21" data-name="Rectangle 21" width="83" height="12" rx="6" transform="translate(1557 535)" fill="#fca311"/>
    <g id="Password_" data-name="Password ">
      <rect id="Rectangle_22" data-name="Rectangle 22" width="12" height="12" rx="6" transform="translate(1409 612)" fill="#fca311"/>
      <rect id="Rectangle_28" data-name="Rectangle 28" width="12" height="12" rx="6" transform="translate(1473 612)" fill="#fca311"/>
      <rect id="Rectangle_25" data-name="Rectangle 25" width="12" height="12" rx="6" transform="translate(1441 612)" fill="#fca311"/>
      <rect id="Rectangle_27" data-name="Rectangle 27" width="12" height="12" rx="6" transform="translate(1505 612)" fill="#fca311"/>
      <rect id="Rectangle_23" data-name="Rectangle 23" width="12" height="12" rx="6" transform="translate(1425 612)" fill="#fca311"/>
      <rect id="Rectangle_29" data-name="Rectangle 29" width="12" height="12" rx="6" transform="translate(1489 612)" fill="#fca311"/>
      <rect id="Rectangle_24" data-name="Rectangle 24" width="12" height="12" rx="6" transform="translate(1457 612)" fill="#fca311"/>
      <rect id="Rectangle_26" data-name="Rectangle 26" width="12" height="12" rx="6" transform="translate(1521 612)" fill="#fca311"/>
    </g>
    <g id="User_Icon" data-name="User Icon">
      <circle id="Ellipse_1" data-name="Ellipse 1" cx="90" cy="90" r="90" transform="translate(1447 239)" fill="#fff"/>
      <circle id="Ellipse_6" data-name="Ellipse 6" cx="33" cy="33" r="33" transform="translate(1504 276)" fill="#fca311"/>
      <path id="Intersection_1" data-name="Intersection 1" d="M4847.994,2372a90.014,90.014,0,0,1,144.013,0,90.014,90.014,0,0,1-144.013,0Z" transform="translate(-3383 -1988)" fill="#fca311"/>
    </g>
    <g id="Phone_Buttons" data-name="Phone Buttons">
      <g id="Group_12" data-name="Group 12">
        <g id="Group_11" data-name="Group 11">
          <path id="Path_7" data-name="Path 7" d="M-3100-1952v64" transform="translate(4830 2228)" fill="none" stroke="#fff" stroke-linecap="round" stroke-width="7"/>
          <path id="Path_8" data-name="Path 8" d="M-3100-1952v120.671" transform="translate(4830 2326)" fill="none" stroke="#fff" stroke-linecap="round" stroke-width="7"/>
        </g>
      </g>
    </g>
    <g id="Shield" transform="translate(195 8)">
      <path id="Union_1" data-name="Union 1" d="M4937.04,2443.337l-1.563-.728-1.564.728h0c-.11-.051-11.622-5.32-24.1-11.458-7.371-3.626-13.683-6.866-18.761-9.629a101.179,101.179,0,0,1-13.138-8.058c-10.234-8.174-13.394-11.885-17.165-18.239-6.775-11.417-12.672-25.689-17.526-42.421a337.98,337.98,0,0,1-9.653-45.571,349.6,349.6,0,0,1-3.469-37.547c-.3-9.584.088-16.615,1.022-18.349.83-1.542,6.272-3.751,16.176-6.566,8.338-2.37,19.719-5.123,32.908-7.96,11.6-2.5,23.769-4.88,34.267-6.714,10.277-1.8,17.658-2.825,20.251-2.825l.218,0c.154,0,.333.012.533.025.2-.013.38-.021.534-.025l.216,0c2.594,0,9.975,1.03,20.251,2.825,10.5,1.834,22.669,4.218,34.267,6.714,13.19,2.838,24.569,5.591,32.91,7.96,9.9,2.815,15.345,5.024,16.175,6.566.935,1.733,1.326,8.765,1.022,18.349a349.225,349.225,0,0,1-3.469,37.547,338.134,338.134,0,0,1-9.652,45.571c-4.855,16.732-10.751,31-17.526,42.421-3.771,6.354-6.932,10.064-17.166,18.239a101.275,101.275,0,0,1-13.136,8.058c-5.08,2.763-11.392,6-18.763,9.629-12.477,6.137-23.989,11.407-24.1,11.458Z" transform="translate(-3832.501 -1591.337)" fill="#fca311" stroke="#fff" stroke-linecap="round" stroke-linejoin="round" stroke-width="4"/>
      <path id="Subtraction_6" data-name="Subtraction 6" d="M1.117,217.668H1.091l-.189,0c-.247-.006-.55-.023-.9-.051V.908C1.237.326,1.932,0,1.932,0l.029.013c1.21.561,12.165,5.648,24.07,11.569,11.587,5.762,26.527,13.541,31.9,17.878C68.166,37.722,71.326,41.473,75.1,47.9,81.87,59.435,87.767,73.862,92.622,90.775a344.86,344.86,0,0,1,9.653,46.064,357.1,357.1,0,0,1,3.47,37.954c.3,9.688-.089,16.794-1.023,18.547-.83,1.559-6.272,3.792-16.175,6.637-8.34,2.4-19.719,5.179-32.906,8.047-24.031,5.227-49,9.642-54.523,9.642h0Z" transform="translate(1102.344 852) rotate(180)" fill="#fff" opacity="0.36"/>
      <path id="Path_15" data-name="Path 15" d="M-4032-1544v45.4h107.365" transform="translate(5242.619 -316.251) rotate(-35)" fill="none" stroke="#fff" stroke-linecap="round" stroke-width="12"/>
    </g>
  </g>
</svg>
